<svg xmlns="http://www.w3.org/2000/svg" width="200" height="200" viewBox="0 0 200 200">
  <rect width="200" height="200" rx="20" fill="#EBE6FF"/>
  <path d="M40,70 Q60,55 80,70 Q100,85 120,70 Q140,55 160,70" fill="none" stroke="#6C5CE7" stroke-width="4" opacity="0.5"/>
  <path d="M40,90 Q60,75 80,90 Q100,105 120,90 Q140,75 160,90" fill="none" stroke="#6C5CE7" stroke-width="4" opacity="0.5"/>
  <circle cx="55" cy="68" r="3" fill="#4834D4" opacity="0.7"/>
  <circle cx="75" cy="72" r="3" fill="#4834D4" opacity="0.7"/>
  <circle cx="95" cy="68" r="3" fill="#4834D4" opacity="0.7"/>
  <circle cx="115" cy="72" r="3" fill="#4834D4" opacity="0.7"/>
  <circle cx="135" cy="68" r="3" fill="#4834D4" opacity="0.7"/>
  <circle cx="65" cy="88" r="3" fill="#4834D4" opacity="0.7"/>
  <circle cx="85" cy="92" r="3" fill="#4834D4" opacity="0.7"/>
  <circle cx="105" cy="88" r="3" fill="#4834D4" opacity="0.7"/>
  <circle cx="125" cy="92" r="3" fill="#4834D4" opacity="0.7"/>
  <text x="100" y="170" text-anchor="middle" font-family="system-ui, -apple-system, sans-serif" font-size="12" font-weight="600" fill="#4834D4" opacity="0.8">Rough ER</text>
</svg>