<svg xmlns="http://www.w3.org/2000/svg" width="400" height="400" viewBox="0 0 400 400">
  <defs>
    <linearGradient id="mitoBg" x1="0%" y1="0%" x2="100%" y2="100%">
      <stop offset="0%" stop-color="#EBE6FF"/>
      <stop offset="100%" stop-color="#DDD6FE"/>
    </linearGradient>
    <linearGradient id="mitoFill" x1="0%" y1="0%" x2="100%" y2="100%">
      <stop offset="0%" stop-color="#6C5CE7"/>
      <stop offset="100%" stop-color="#4834D4"/>
    </linearGradient>
  </defs>
  <rect width="400" height="400" rx="24" fill="url(#mitoBg)"/>
  <!-- Outer membrane -->
  <ellipse cx="200" cy="175" rx="120" ry="65" fill="url(#mitoFill)" opacity="0.2" stroke="#6C5CE7" stroke-width="2.5" opacity="0.4"/>
  <!-- Inner membrane -->
  <ellipse cx="200" cy="175" rx="110" ry="55" fill="url(#mitoFill)" opacity="0.15" stroke="#4834D4" stroke-width="2" opacity="0.3"/>
  <!-- Cristae folds -->
  <path d="M110,175 Q125,140 145,175 Q165,210 185,175 Q205,140 225,175 Q245,210 265,175 Q285,140 295,175" fill="none" stroke="#4834D4" stroke-width="2.5" opacity="0.5"/>
  <path d="M120,185 Q140,155 160,185 Q180,215 200,185 Q220,155 240,185 Q260,215 280,185" fill="none" stroke="#6C5CE7" stroke-width="2" opacity="0.35"/>
  <path d="M130,165 Q150,135 170,165 Q190,195 210,165 Q230,135 250,165 Q270,195 285,165" fill="none" stroke="#4834D4" stroke-width="1.5" opacity="0.3"/>
  <!-- Matrix dots -->
  <circle cx="150" cy="165" r="3" fill="#4834D4" opacity="0.3"/>
  <circle cx="180" cy="190" r="2.5" fill="#6C5CE7" opacity="0.25"/>
  <circle cx="220" cy="160" r="3" fill="#4834D4" opacity="0.3"/>
  <circle cx="250" cy="185" r="2" fill="#6C5CE7" opacity="0.25"/>
  <circle cx="200" cy="175" r="2.5" fill="#4834D4" opacity="0.2"/>
  <!-- Labels -->
  <rect x="85" y="100" width="95" height="22" rx="6" fill="white" opacity="0.75"/>
  <text x="132" y="115" text-anchor="middle" font-family="system-ui, -apple-system, sans-serif" font-size="10" font-weight="600" fill="#4834D4">Outer Membrane</text>
  <line x1="132" y1="122" x2="132" y2="135" stroke="#4834D4" stroke-width="1" opacity="0.4"/>
  <rect x="230" y="230" width="75" height="22" rx="6" fill="white" opacity="0.75"/>
  <text x="267" y="245" text-anchor="middle" font-family="system-ui, -apple-system, sans-serif" font-size="10" font-weight="600" fill="#4834D4">Cristae</text>
  <line x1="267" y1="230" x2="255" y2="210" stroke="#4834D4" stroke-width="1" opacity="0.4"/>
  <rect x="105" y="230" width="60" height="22" rx="6" fill="white" opacity="0.75"/>
  <text x="135" y="245" text-anchor="middle" font-family="system-ui, -apple-system, sans-serif" font-size="10" font-weight="600" fill="#4834D4">Matrix</text>
  <line x1="135" y1="230" x2="150" y2="200" stroke="#4834D4" stroke-width="1" opacity="0.4"/>
  <!-- Title -->
  <text x="200" y="310" text-anchor="middle" font-family="system-ui, -apple-system, sans-serif" font-size="16" font-weight="700" fill="#4834D4" opacity="0.85">Mitochondria Structure</text>
  <!-- Subtitle -->
  <text x="200" y="332" text-anchor="middle" font-family="system-ui, -apple-system, sans-serif" font-size="11" fill="#6C5CE7" opacity="0.6">The Powerhouse of the Cell</text>
  <!-- Attribution -->
  <text x="200" y="380" text-anchor="middle" font-family="system-ui, -apple-system, sans-serif" font-size="10" fill="#4834D4" opacity="0.5">EnterMedSchool.org  CC BY 4.0</text>
</svg>
