<svg xmlns="http://www.w3.org/2000/svg" width="400" height="300" viewBox="0 0 400 300">
  <rect width="400" height="300" rx="12" fill="#F5F7FF"/>
  <rect x="1" y="1" width="398" height="298" rx="11" fill="none" stroke="#E0E0F0" stroke-width="2"/>
  <rect x="20" y="20" width="360" height="24" rx="4" fill="#E8E6F0"/>
  <rect x="20" y="56" width="260" height="12" rx="3" fill="#EDEDF5"/>
  <rect x="20" y="80" width="160" height="160" rx="8" fill="#E8E6F0"/>
  <rect x="200" y="80" width="180" height="12" rx="3" fill="#EDEDF5"/>
  <rect x="200" y="100" width="180" height="12" rx="3" fill="#EDEDF5"/>
  <rect x="200" y="120" width="140" height="12" rx="3" fill="#EDEDF5"/>
  <rect x="200" y="148" width="180" height="12" rx="3" fill="#EDEDF5"/>
  <rect x="200" y="168" width="160" height="12" rx="3" fill="#EDEDF5"/>
  <rect x="200" y="188" width="120" height="12" rx="3" fill="#EDEDF5"/>
  <rect x="20" y="260" width="360" height="20" rx="4" fill="#E8E6F0"/>
  <text x="200" y="170" text-anchor="middle" font-family="sans-serif" font-size="13" fill="#8888aa">Lecture Slide Preview</text>
</svg>
